<mxfile host="app.diagrams.net" modified="2024-01-05T07:23:33.710Z" agent="Mozilla/5.0 (Windows NT 10.0; Win64; x64) AppleWebKit/537.36 (KHTML, like Gecko) Chrome/120.0.0.0 Safari/537.36" etag="s5f0QI29dn-j4N1NR9zn" version="22.1.16" type="github">
  <diagram id="C5RBs43oDa-KdzZeNtuy" name="Page-1">
    <mxGraphModel dx="2049" dy="1054" grid="0" gridSize="10" guides="1" tooltips="1" connect="1" arrows="1" fold="1" page="1" pageScale="1" pageWidth="827" pageHeight="1169" background="#000000" math="0" shadow="0">
      <root>
        <mxCell id="WIyWlLk6GJQsqaUBKTNV-0" />
        <mxCell id="WIyWlLk6GJQsqaUBKTNV-1" parent="WIyWlLk6GJQsqaUBKTNV-0" />
        <mxCell id="WIyWlLk6GJQsqaUBKTNV-2" value="" style="rounded=0;html=1;jettySize=auto;orthogonalLoop=1;fontSize=11;endArrow=block;endFill=0;endSize=8;strokeWidth=1;shadow=0;labelBackgroundColor=none;edgeStyle=orthogonalEdgeStyle;sketch=1;curveFitting=1;jiggle=2;fontColor=default;strokeColor=#0B4D6A;" parent="WIyWlLk6GJQsqaUBKTNV-1" source="WIyWlLk6GJQsqaUBKTNV-3" target="WIyWlLk6GJQsqaUBKTNV-6" edge="1">
          <mxGeometry relative="1" as="geometry" />
        </mxCell>
        <mxCell id="WIyWlLk6GJQsqaUBKTNV-3" value="cv 获取一批域名的封禁数据" style="rounded=0;whiteSpace=wrap;html=1;fontSize=12;glass=0;strokeWidth=1;shadow=0;sketch=1;curveFitting=1;jiggle=2;labelBackgroundColor=none;fillColor=#09555B;strokeColor=#BAC8D3;fontColor=#EEEEEE;" parent="WIyWlLk6GJQsqaUBKTNV-1" vertex="1">
          <mxGeometry x="160" y="80" width="120" height="40" as="geometry" />
        </mxCell>
        <mxCell id="WIyWlLk6GJQsqaUBKTNV-4" value="Yes" style="rounded=0;html=1;jettySize=auto;orthogonalLoop=1;fontSize=11;endArrow=block;endFill=0;endSize=8;strokeWidth=1;shadow=0;labelBackgroundColor=none;edgeStyle=orthogonalEdgeStyle;sketch=1;curveFitting=1;jiggle=2;fontColor=default;strokeColor=#0B4D6A;entryX=0.5;entryY=0;entryDx=0;entryDy=0;" parent="WIyWlLk6GJQsqaUBKTNV-1" source="WIyWlLk6GJQsqaUBKTNV-6" target="NYtHafZjHEk6bCF80Hc5-25" edge="1">
          <mxGeometry y="20" relative="1" as="geometry">
            <mxPoint as="offset" />
            <mxPoint x="220" y="290" as="targetPoint" />
          </mxGeometry>
        </mxCell>
        <mxCell id="WIyWlLk6GJQsqaUBKTNV-5" value="No" style="edgeStyle=orthogonalEdgeStyle;rounded=0;html=1;jettySize=auto;orthogonalLoop=1;fontSize=11;endArrow=block;endFill=0;endSize=8;strokeWidth=1;shadow=0;labelBackgroundColor=none;sketch=1;curveFitting=1;jiggle=2;fontColor=default;strokeColor=#0B4D6A;" parent="WIyWlLk6GJQsqaUBKTNV-1" source="WIyWlLk6GJQsqaUBKTNV-6" target="WIyWlLk6GJQsqaUBKTNV-7" edge="1">
          <mxGeometry y="10" relative="1" as="geometry">
            <mxPoint as="offset" />
          </mxGeometry>
        </mxCell>
        <mxCell id="NYtHafZjHEk6bCF80Hc5-23" value="没有" style="edgeLabel;html=1;align=center;verticalAlign=middle;resizable=0;points=[];fontSize=17;fontFamily=Architects Daughter;fontColor=#EEEEEE;labelBackgroundColor=none;" vertex="1" connectable="0" parent="WIyWlLk6GJQsqaUBKTNV-5">
          <mxGeometry x="0.0333" relative="1" as="geometry">
            <mxPoint x="-12" as="offset" />
          </mxGeometry>
        </mxCell>
        <mxCell id="WIyWlLk6GJQsqaUBKTNV-6" value="域名是否有封禁数据？" style="rhombus;whiteSpace=wrap;html=1;shadow=0;fontFamily=Helvetica;fontSize=12;align=center;strokeWidth=1;spacing=6;spacingTop=-4;sketch=1;curveFitting=1;jiggle=2;rounded=0;labelBackgroundColor=none;fillColor=#09555B;strokeColor=#BAC8D3;fontColor=#EEEEEE;" parent="WIyWlLk6GJQsqaUBKTNV-1" vertex="1">
          <mxGeometry x="170" y="170" width="100" height="80" as="geometry" />
        </mxCell>
        <mxCell id="WIyWlLk6GJQsqaUBKTNV-7" value="删除封禁数据" style="rounded=0;whiteSpace=wrap;html=1;fontSize=12;glass=0;strokeWidth=1;shadow=0;sketch=1;curveFitting=1;jiggle=2;labelBackgroundColor=none;fillColor=#6d8764;strokeColor=#3A5431;fontColor=#ffffff;" parent="WIyWlLk6GJQsqaUBKTNV-1" vertex="1">
          <mxGeometry x="332" y="190" width="120" height="40" as="geometry" />
        </mxCell>
        <mxCell id="NYtHafZjHEk6bCF80Hc5-11" value="" style="rounded=0;html=1;jettySize=auto;orthogonalLoop=1;fontSize=11;endArrow=block;endFill=0;endSize=8;strokeWidth=1;shadow=0;labelBackgroundColor=none;edgeStyle=orthogonalEdgeStyle;sketch=1;curveFitting=1;jiggle=2;fontColor=default;strokeColor=#3A5431;fillColor=#6d8764;" edge="1" parent="WIyWlLk6GJQsqaUBKTNV-1" source="NYtHafZjHEk6bCF80Hc5-12" target="NYtHafZjHEk6bCF80Hc5-15">
          <mxGeometry relative="1" as="geometry" />
        </mxCell>
        <mxCell id="NYtHafZjHEk6bCF80Hc5-12" value="删除域名封禁数据" style="rounded=0;whiteSpace=wrap;html=1;fontSize=12;glass=0;strokeWidth=1;shadow=0;sketch=1;curveFitting=1;jiggle=2;labelBackgroundColor=none;fillColor=#6d8764;strokeColor=#3A5431;fontColor=#ffffff;" vertex="1" parent="WIyWlLk6GJQsqaUBKTNV-1">
          <mxGeometry x="538" y="80" width="150" height="40" as="geometry" />
        </mxCell>
        <mxCell id="NYtHafZjHEk6bCF80Hc5-14" value="No" style="edgeStyle=orthogonalEdgeStyle;rounded=0;html=1;jettySize=auto;orthogonalLoop=1;fontSize=11;endArrow=block;endFill=0;endSize=8;strokeWidth=1;shadow=0;labelBackgroundColor=none;sketch=1;curveFitting=1;jiggle=2;fontColor=default;strokeColor=#3A5431;fillColor=#6d8764;" edge="1" parent="WIyWlLk6GJQsqaUBKTNV-1" source="NYtHafZjHEk6bCF80Hc5-15" target="NYtHafZjHEk6bCF80Hc5-16">
          <mxGeometry y="10" relative="1" as="geometry">
            <mxPoint as="offset" />
          </mxGeometry>
        </mxCell>
        <mxCell id="NYtHafZjHEk6bCF80Hc5-15" value="判断此域名待删除数据的md5值在关系表里是否唯一" style="rhombus;whiteSpace=wrap;html=1;shadow=0;fontFamily=Helvetica;fontSize=12;align=center;strokeWidth=1;spacing=6;spacingTop=-4;sketch=1;curveFitting=1;jiggle=2;rounded=0;labelBackgroundColor=none;fillColor=#6d8764;strokeColor=#3A5431;fontColor=#ffffff;" vertex="1" parent="WIyWlLk6GJQsqaUBKTNV-1">
          <mxGeometry x="548" y="170" width="130" height="80" as="geometry" />
        </mxCell>
        <mxCell id="NYtHafZjHEk6bCF80Hc5-16" value="不唯一，只删除域名关系数据" style="rounded=0;whiteSpace=wrap;html=1;fontSize=12;glass=0;strokeWidth=1;shadow=0;sketch=1;curveFitting=1;jiggle=2;labelBackgroundColor=none;fillColor=#6d8764;strokeColor=#3A5431;fontColor=#ffffff;" vertex="1" parent="WIyWlLk6GJQsqaUBKTNV-1">
          <mxGeometry x="742" y="190" width="150" height="40" as="geometry" />
        </mxCell>
        <mxCell id="NYtHafZjHEk6bCF80Hc5-17" value="No" style="rounded=0;html=1;jettySize=auto;orthogonalLoop=1;fontSize=11;endArrow=block;endFill=0;endSize=8;strokeWidth=1;shadow=0;labelBackgroundColor=none;edgeStyle=orthogonalEdgeStyle;sketch=1;curveFitting=1;jiggle=2;fontColor=default;strokeColor=#3A5431;exitX=0.5;exitY=1;exitDx=0;exitDy=0;fillColor=#6d8764;" edge="1" parent="WIyWlLk6GJQsqaUBKTNV-1" source="NYtHafZjHEk6bCF80Hc5-15" target="NYtHafZjHEk6bCF80Hc5-20">
          <mxGeometry x="0.3333" y="20" relative="1" as="geometry">
            <mxPoint as="offset" />
            <mxPoint x="613" y="280" as="sourcePoint" />
          </mxGeometry>
        </mxCell>
        <mxCell id="NYtHafZjHEk6bCF80Hc5-20" value="唯一，则删除域名关系数据的同时删除md5对应的配置" style="rounded=0;whiteSpace=wrap;html=1;fontSize=12;glass=0;strokeWidth=1;shadow=0;sketch=1;curveFitting=1;jiggle=2;labelBackgroundColor=none;fillColor=#6d8764;strokeColor=#3A5431;fontColor=#ffffff;" vertex="1" parent="WIyWlLk6GJQsqaUBKTNV-1">
          <mxGeometry x="538" y="310" width="150" height="40" as="geometry" />
        </mxCell>
        <mxCell id="NYtHafZjHEk6bCF80Hc5-24" value="" style="rounded=0;html=1;jettySize=auto;orthogonalLoop=1;fontSize=11;endArrow=block;endFill=0;endSize=8;strokeWidth=1;shadow=0;labelBackgroundColor=none;edgeStyle=orthogonalEdgeStyle;sketch=1;curveFitting=1;jiggle=2;fontColor=default;strokeColor=#0B4D6A;" edge="1" parent="WIyWlLk6GJQsqaUBKTNV-1" source="NYtHafZjHEk6bCF80Hc5-25" target="NYtHafZjHEk6bCF80Hc5-27">
          <mxGeometry relative="1" as="geometry" />
        </mxCell>
        <mxCell id="NYtHafZjHEk6bCF80Hc5-25" value="新增或修改域名封禁数据" style="rounded=0;whiteSpace=wrap;html=1;fontSize=12;glass=0;strokeWidth=1;shadow=0;sketch=1;curveFitting=1;jiggle=2;labelBackgroundColor=none;fillColor=#09555B;strokeColor=#BAC8D3;fontColor=#EEEEEE;" vertex="1" parent="WIyWlLk6GJQsqaUBKTNV-1">
          <mxGeometry x="147" y="305" width="150" height="40" as="geometry" />
        </mxCell>
        <mxCell id="NYtHafZjHEk6bCF80Hc5-26" value="No" style="edgeStyle=orthogonalEdgeStyle;rounded=0;html=1;jettySize=auto;orthogonalLoop=1;fontSize=11;endArrow=block;endFill=0;endSize=8;strokeWidth=1;shadow=0;labelBackgroundColor=none;sketch=1;curveFitting=1;jiggle=2;fontColor=default;strokeColor=#0B4D6A;" edge="1" parent="WIyWlLk6GJQsqaUBKTNV-1" source="NYtHafZjHEk6bCF80Hc5-27" target="NYtHafZjHEk6bCF80Hc5-28">
          <mxGeometry y="10" relative="1" as="geometry">
            <mxPoint as="offset" />
          </mxGeometry>
        </mxCell>
        <mxCell id="NYtHafZjHEk6bCF80Hc5-27" value="判断此域名在关系表里是否已有数据" style="rhombus;whiteSpace=wrap;html=1;shadow=0;fontFamily=Helvetica;fontSize=12;align=center;strokeWidth=1;spacing=6;spacingTop=-4;sketch=1;curveFitting=1;jiggle=2;rounded=0;labelBackgroundColor=none;fillColor=#09555B;strokeColor=#BAC8D3;fontColor=#EEEEEE;" vertex="1" parent="WIyWlLk6GJQsqaUBKTNV-1">
          <mxGeometry x="157" y="395" width="130" height="80" as="geometry" />
        </mxCell>
        <mxCell id="NYtHafZjHEk6bCF80Hc5-28" value="没有数据，视为新增ip封禁配置" style="rounded=0;whiteSpace=wrap;html=1;fontSize=12;glass=0;strokeWidth=1;shadow=0;sketch=1;curveFitting=1;jiggle=2;labelBackgroundColor=none;fillColor=#a20025;strokeColor=#6F0000;fontColor=#ffffff;" vertex="1" parent="WIyWlLk6GJQsqaUBKTNV-1">
          <mxGeometry x="351" y="415" width="150" height="40" as="geometry" />
        </mxCell>
        <mxCell id="NYtHafZjHEk6bCF80Hc5-29" value="No" style="rounded=0;html=1;jettySize=auto;orthogonalLoop=1;fontSize=11;endArrow=block;endFill=0;endSize=8;strokeWidth=1;shadow=0;labelBackgroundColor=none;edgeStyle=orthogonalEdgeStyle;sketch=1;curveFitting=1;jiggle=2;fontColor=default;strokeColor=#0B4D6A;exitX=0.5;exitY=1;exitDx=0;exitDy=0;" edge="1" parent="WIyWlLk6GJQsqaUBKTNV-1" source="NYtHafZjHEk6bCF80Hc5-27" target="NYtHafZjHEk6bCF80Hc5-30">
          <mxGeometry x="0.3333" y="20" relative="1" as="geometry">
            <mxPoint as="offset" />
            <mxPoint x="222" y="505" as="sourcePoint" />
          </mxGeometry>
        </mxCell>
        <mxCell id="NYtHafZjHEk6bCF80Hc5-30" value="有数据，视为修改ip封禁配置" style="rounded=0;whiteSpace=wrap;html=1;fontSize=12;glass=0;strokeWidth=1;shadow=0;sketch=1;curveFitting=1;jiggle=2;labelBackgroundColor=none;fillColor=#76608a;strokeColor=#432D57;fontColor=#ffffff;" vertex="1" parent="WIyWlLk6GJQsqaUBKTNV-1">
          <mxGeometry x="147" y="535" width="150" height="40" as="geometry" />
        </mxCell>
        <mxCell id="NYtHafZjHEk6bCF80Hc5-31" value="" style="rounded=0;html=1;jettySize=auto;orthogonalLoop=1;fontSize=11;endArrow=block;endFill=0;endSize=8;strokeWidth=1;shadow=0;labelBackgroundColor=none;edgeStyle=orthogonalEdgeStyle;sketch=1;curveFitting=1;jiggle=2;fontColor=default;strokeColor=#6F0000;fillColor=#a20025;" edge="1" parent="WIyWlLk6GJQsqaUBKTNV-1" source="NYtHafZjHEk6bCF80Hc5-32" target="NYtHafZjHEk6bCF80Hc5-34">
          <mxGeometry relative="1" as="geometry" />
        </mxCell>
        <mxCell id="NYtHafZjHEk6bCF80Hc5-32" value="新增ip封禁配置" style="rounded=0;whiteSpace=wrap;html=1;fontSize=12;glass=0;strokeWidth=1;shadow=0;sketch=1;curveFitting=1;jiggle=2;labelBackgroundColor=none;fillColor=#a20025;strokeColor=#6F0000;fontColor=#ffffff;" vertex="1" parent="WIyWlLk6GJQsqaUBKTNV-1">
          <mxGeometry x="969" y="75" width="150" height="40" as="geometry" />
        </mxCell>
        <mxCell id="NYtHafZjHEk6bCF80Hc5-33" value="No" style="edgeStyle=orthogonalEdgeStyle;rounded=0;html=1;jettySize=auto;orthogonalLoop=1;fontSize=11;endArrow=block;endFill=0;endSize=8;strokeWidth=1;shadow=0;labelBackgroundColor=none;sketch=1;curveFitting=1;jiggle=2;fontColor=default;strokeColor=#6F0000;fillColor=#a20025;" edge="1" parent="WIyWlLk6GJQsqaUBKTNV-1" source="NYtHafZjHEk6bCF80Hc5-34" target="NYtHafZjHEk6bCF80Hc5-35">
          <mxGeometry y="10" relative="1" as="geometry">
            <mxPoint as="offset" />
          </mxGeometry>
        </mxCell>
        <mxCell id="NYtHafZjHEk6bCF80Hc5-34" value="判断新增的ip封禁配置的md5值在配置表里是否已存在" style="rhombus;whiteSpace=wrap;html=1;shadow=0;fontFamily=Helvetica;fontSize=12;align=center;strokeWidth=1;spacing=6;spacingTop=-4;sketch=1;curveFitting=1;jiggle=2;rounded=0;labelBackgroundColor=none;fillColor=#a20025;strokeColor=#6F0000;fontColor=#ffffff;" vertex="1" parent="WIyWlLk6GJQsqaUBKTNV-1">
          <mxGeometry x="979" y="165" width="130" height="80" as="geometry" />
        </mxCell>
        <mxCell id="NYtHafZjHEk6bCF80Hc5-35" value="已存在，则仅新增一条域名关系数据" style="rounded=0;whiteSpace=wrap;html=1;fontSize=12;glass=0;strokeWidth=1;shadow=0;sketch=1;curveFitting=1;jiggle=2;labelBackgroundColor=none;fillColor=#a20025;strokeColor=#6F0000;fontColor=#ffffff;" vertex="1" parent="WIyWlLk6GJQsqaUBKTNV-1">
          <mxGeometry x="1173" y="185" width="150" height="40" as="geometry" />
        </mxCell>
        <mxCell id="NYtHafZjHEk6bCF80Hc5-36" value="No" style="rounded=0;html=1;jettySize=auto;orthogonalLoop=1;fontSize=11;endArrow=block;endFill=0;endSize=8;strokeWidth=1;shadow=0;labelBackgroundColor=none;edgeStyle=orthogonalEdgeStyle;sketch=1;curveFitting=1;jiggle=2;fontColor=default;strokeColor=#6F0000;exitX=0.5;exitY=1;exitDx=0;exitDy=0;fillColor=#a20025;" edge="1" parent="WIyWlLk6GJQsqaUBKTNV-1" source="NYtHafZjHEk6bCF80Hc5-34" target="NYtHafZjHEk6bCF80Hc5-37">
          <mxGeometry x="0.3333" y="20" relative="1" as="geometry">
            <mxPoint as="offset" />
            <mxPoint x="1044" y="275" as="sourcePoint" />
          </mxGeometry>
        </mxCell>
        <mxCell id="NYtHafZjHEk6bCF80Hc5-37" value="不存在，则新增一条关系数据，一条配置数据" style="rounded=0;whiteSpace=wrap;html=1;fontSize=12;glass=0;strokeWidth=1;shadow=0;sketch=1;curveFitting=1;jiggle=2;labelBackgroundColor=none;fillColor=#a20025;strokeColor=#6F0000;fontColor=#ffffff;" vertex="1" parent="WIyWlLk6GJQsqaUBKTNV-1">
          <mxGeometry x="969" y="305" width="150" height="40" as="geometry" />
        </mxCell>
        <mxCell id="NYtHafZjHEk6bCF80Hc5-38" value="" style="rounded=0;html=1;jettySize=auto;orthogonalLoop=1;fontSize=11;endArrow=block;endFill=0;endSize=8;strokeWidth=1;shadow=0;labelBackgroundColor=none;edgeStyle=orthogonalEdgeStyle;sketch=1;curveFitting=1;jiggle=2;fontColor=default;strokeColor=#432D57;fillColor=#76608a;" edge="1" parent="WIyWlLk6GJQsqaUBKTNV-1" source="NYtHafZjHEk6bCF80Hc5-39" target="NYtHafZjHEk6bCF80Hc5-41">
          <mxGeometry relative="1" as="geometry" />
        </mxCell>
        <mxCell id="NYtHafZjHEk6bCF80Hc5-39" value="修改ip封禁配置" style="rounded=0;whiteSpace=wrap;html=1;fontSize=12;glass=0;strokeWidth=1;shadow=0;sketch=1;curveFitting=1;jiggle=2;labelBackgroundColor=none;fillColor=#76608a;strokeColor=#432D57;fontColor=#ffffff;" vertex="1" parent="WIyWlLk6GJQsqaUBKTNV-1">
          <mxGeometry x="1433" y="55" width="150" height="40" as="geometry" />
        </mxCell>
        <mxCell id="NYtHafZjHEk6bCF80Hc5-40" value="No" style="edgeStyle=orthogonalEdgeStyle;rounded=0;html=1;jettySize=auto;orthogonalLoop=1;fontSize=11;endArrow=block;endFill=0;endSize=8;strokeWidth=1;shadow=0;labelBackgroundColor=none;sketch=1;curveFitting=1;jiggle=2;fontColor=default;strokeColor=#432D57;fillColor=#76608a;" edge="1" parent="WIyWlLk6GJQsqaUBKTNV-1" source="NYtHafZjHEk6bCF80Hc5-41" target="NYtHafZjHEk6bCF80Hc5-42">
          <mxGeometry y="10" relative="1" as="geometry">
            <mxPoint as="offset" />
          </mxGeometry>
        </mxCell>
        <mxCell id="NYtHafZjHEk6bCF80Hc5-41" value="判断待修改的ip封禁配置的md5值在关系表中是否唯一" style="rhombus;whiteSpace=wrap;html=1;shadow=0;fontFamily=Helvetica;fontSize=12;align=center;strokeWidth=1;spacing=6;spacingTop=-4;sketch=1;curveFitting=1;jiggle=2;rounded=0;labelBackgroundColor=none;fillColor=#76608a;strokeColor=#432D57;fontColor=#ffffff;" vertex="1" parent="WIyWlLk6GJQsqaUBKTNV-1">
          <mxGeometry x="1443" y="145" width="130" height="80" as="geometry" />
        </mxCell>
        <mxCell id="NYtHafZjHEk6bCF80Hc5-42" value="唯一，则删除旧md5对应的配置数据" style="rounded=0;whiteSpace=wrap;html=1;fontSize=12;glass=0;strokeWidth=1;shadow=0;sketch=1;curveFitting=1;jiggle=2;labelBackgroundColor=none;fillColor=#76608a;strokeColor=#432D57;fontColor=#ffffff;" vertex="1" parent="WIyWlLk6GJQsqaUBKTNV-1">
          <mxGeometry x="1637" y="165" width="150" height="40" as="geometry" />
        </mxCell>
        <mxCell id="NYtHafZjHEk6bCF80Hc5-43" value="No" style="rounded=0;html=1;jettySize=auto;orthogonalLoop=1;fontSize=11;endArrow=block;endFill=0;endSize=8;strokeWidth=1;shadow=0;labelBackgroundColor=none;edgeStyle=orthogonalEdgeStyle;sketch=1;curveFitting=1;jiggle=2;fontColor=default;strokeColor=#432D57;exitX=0.5;exitY=1;exitDx=0;exitDy=0;fillColor=#76608a;" edge="1" parent="WIyWlLk6GJQsqaUBKTNV-1" source="NYtHafZjHEk6bCF80Hc5-41" target="NYtHafZjHEk6bCF80Hc5-44">
          <mxGeometry x="0.3333" y="20" relative="1" as="geometry">
            <mxPoint as="offset" />
            <mxPoint x="1508" y="255" as="sourcePoint" />
          </mxGeometry>
        </mxCell>
        <mxCell id="NYtHafZjHEk6bCF80Hc5-46" value="" style="edgeStyle=orthogonalEdgeStyle;rounded=0;sketch=1;hachureGap=4;jiggle=2;curveFitting=1;orthogonalLoop=1;jettySize=auto;html=1;strokeColor=#0B4D6A;fontFamily=Architects Daughter;fontSource=https%3A%2F%2Ffonts.googleapis.com%2Fcss%3Ffamily%3DArchitects%2BDaughter;fontSize=16;" edge="1" parent="WIyWlLk6GJQsqaUBKTNV-1" source="NYtHafZjHEk6bCF80Hc5-44" target="NYtHafZjHEk6bCF80Hc5-45">
          <mxGeometry relative="1" as="geometry" />
        </mxCell>
        <mxCell id="NYtHafZjHEk6bCF80Hc5-44" value="不唯一，则删除域名对应的关系数据。并执行下一步，视作新增一条ip封禁配置" style="rounded=0;whiteSpace=wrap;html=1;fontSize=12;glass=0;strokeWidth=1;shadow=0;sketch=1;curveFitting=1;jiggle=2;labelBackgroundColor=none;fillColor=#76608a;strokeColor=#432D57;fontColor=#ffffff;" vertex="1" parent="WIyWlLk6GJQsqaUBKTNV-1">
          <mxGeometry x="1433" y="285" width="150" height="40" as="geometry" />
        </mxCell>
        <mxCell id="NYtHafZjHEk6bCF80Hc5-45" value="新增ip封禁配置" style="whiteSpace=wrap;html=1;fillColor=#a20025;strokeColor=#6F0000;fontColor=#ffffff;rounded=0;glass=0;strokeWidth=1;shadow=0;sketch=1;curveFitting=1;jiggle=2;labelBackgroundColor=none;" vertex="1" parent="WIyWlLk6GJQsqaUBKTNV-1">
          <mxGeometry x="1448" y="395" width="120" height="60" as="geometry" />
        </mxCell>
      </root>
    </mxGraphModel>
  </diagram>
</mxfile>
